<?xml version="1.0" encoding="UTF-8"?><svg id="Layer_1" xmlns="http://www.w3.org/2000/svg" xmlns:xlink="http://www.w3.org/1999/xlink" viewBox="0 0 32 32"><defs><style>.cls-1,.cls-2{fill:#4f46e5;}.cls-3{fill:#fff;}.cls-4{fill:none;}.cls-2{stroke:#fff;stroke-miterlimit:10;stroke-width:.63px;}.cls-5{clip-path:url(#clippath);}</style><clipPath id="clippath"><path class="cls-4" d="M16,1.17C7.67,1.17.93,7.92.93,16.25s6.75,15.07,15.07,15.07,15.07-6.75,15.07-15.07S24.33,1.17,16,1.17ZM16,24.74c-4.83,0-8.74-3.92-8.74-8.74s3.92-8.74,8.74-8.74,8.74,3.92,8.74,8.74-3.92,8.74-8.74,8.74Z"/></clipPath></defs><rect class="cls-1" y="0" width="32" height="32"/><path class="cls-3" d="M29.56,16.56c-.28-.57-.69-.98-1.09-1.28.39-.53.8-1.31.83-2.29.05-1.61-.92-3.15-2.46-3.98.17-1.42-.36-2.81-1.43-3.71-1.31-1.1-2.85-.98-3.35-.9-.05-.08-.1-.15-.15-.23-.56-.79-1.38-1.39-2.32-1.64-1.6-.43-3.07.26-3.98,1.53-6.48.12-11.72,5.43-11.72,11.95s5.27,11.86,11.79,11.95c.36.42.78.76,1.25,1.02.69.39,1.57.64,2.48.64.84,0,1.71-.22,2.47-.75.39-.27.72-.61,1-1.01.84.16,2.56.3,4.03-.87,1.56-1.25,2.14-3.43,1.48-5.44,1.43-1.47,1.92-3.47,1.17-4.99ZM15.84,27.14h0,0s0,0,0,0ZM15.84,4.86h0s0,0,0,0h0ZM5.52,16c0-5.55,4.4-10.08,9.89-10.31,0,3.45.07,6.94.12,10.32.06,3.38.11,6.87.12,10.31-5.61-.1-10.13-4.69-10.13-10.32ZM26.14,26.01c-1.03.83-2.3.75-2.94.63-.08-.44-.27-.86-.54-1.19-.34-.42-.77-.73-1.24-.95.16.19.31.39.42.6.12.21.21.43.26.64.1.41.08.81-.1,1.17,0,0,0,0,0,0-.22.38-.5.69-.84.93-1.13.79-2.66.58-3.62.04-.34-.19-.65-.44-.91-.74h.02c0-3.72-.06-7.49-.13-11.14-.06-3.56-.12-7.24-.12-10.86h0c.08-.2.2-.41.33-.61.69-1.05,1.83-1.47,3.03-1.12.72.21,1.36.67,1.82,1.26.67.81.94,1.87.33,2.8-.45.66-1.25,1.04-2.06,1.03.82.09,1.71-.24,2.25-.89.47-.55.61-1.31.48-2.01.48-.02,1.32.05,2.03.65.84.7,1.19,1.85.93,2.98h0c-.18.42-.46.81-.83,1.12-.43.36-.97.63-1.57.75,1.14.17,2.29-.2,3.14-.97,1.12.6,1.82,1.7,1.78,2.82-.04,1.03-.69,1.77-.98,2.03l-.38.36c-.74.6-1.65,1.01-2.61,1.16,1.12.21,2.31.07,3.39-.38.35.2.73.52.96.99.55,1.12.06,2.69-1.2,3.8l-.28.25c-.54.41-1.22.62-1.91.55-.5-.04-.98-.21-1.42-.46-.18-.1-.35-.22-.51-.35.12.17.27.33.42.48,1.03,1.01,2.44,1.3,3.74.85.36,1.43-.07,2.91-1.15,3.77Z"/><g class="cls-5"><rect class="cls-3" x="10.67" y="23.67" width="1.45" height=".35" transform="translate(-14.95 21.79) rotate(-60)"/><rect class="cls-3" x="7.35" y="20.35" width="1.45" height=".35" transform="translate(-9.18 6.79) rotate(-30)"/><polygon class="cls-3" points="14.33 17.11 14.33 17.11 14.15 16.81 14.33 17.11"/><rect class="cls-3" x="6.13" y="15.81" width="1.45" height=".35"/><rect class="cls-3" x="7.9" y="10.72" width=".35" height="1.45" transform="translate(-5.87 12.71) rotate(-60)"/><rect class="cls-3" x="11.22" y="7.39" width=".35" height="1.45" transform="translate(-2.53 6.79) rotate(-30)"/></g><circle class="cls-2" cx="16" cy="16" r="1.91"/><polygon class="cls-3" points="10.57 20.47 11.76 20.53 14.61 17.68 13.95 16.92 10.7 19.28 10.57 20.47"/><polygon class="cls-3" points="9.04 9.98 9.18 11.17 14.29 15.26 14.9 14.57 10.24 9.98 9.04 9.98"/></svg>